<svg width="1280" height="720" viewBox="0 0 1280 720" fill="none" xmlns="http://www.w3.org/2000/svg">
<g clip-path="url(#clip0)">
<path d="M1469 110.125H-31V953.875H1469V110.125Z" fill="#EBEBEB"/>
<path d="M914.068 336.684H523.443V727.309H914.068V336.684Z" fill="url(#paint0_linear)"/>
<path d="M521.528 461.131C559.302 461.131 589.924 433.273 589.924 398.907C589.924 364.542 559.302 336.684 521.528 336.684C483.753 336.684 453.131 364.542 453.131 398.907C453.131 433.273 483.753 461.131 521.528 461.131Z" fill="#F8F7F7"/>
<path d="M612.108 390.013H434.82V461.125H612.108V390.013Z" fill="#F8F7F7"/>
<path d="M434.923 461.126C451.97 461.126 465.788 445.207 465.788 425.569C465.788 405.932 451.97 390.013 434.923 390.013C417.877 390.013 404.059 405.932 404.059 425.569C404.059 445.207 417.877 461.126 434.923 461.126Z" fill="#F8F7F7"/>
<path d="M612.169 461.126C629.216 461.126 643.034 445.207 643.034 425.569C643.034 405.932 629.216 390.013 612.169 390.013C595.123 390.013 581.305 405.932 581.305 425.569C581.305 445.207 595.123 461.126 612.169 461.126Z" fill="#F8F7F7"/>
<path d="M912.275 656.447C950.049 656.447 980.672 628.588 980.672 594.223C980.672 559.858 950.049 532 912.275 532C874.5 532 843.878 559.858 843.878 594.223C843.878 628.588 874.5 656.447 912.275 656.447Z" fill="#F8F7F7"/>
<path d="M1002.85 585.33H825.567V656.442H1002.85V585.33Z" fill="#F8F7F7"/>
<path d="M825.67 656.442C842.716 656.442 856.535 640.523 856.535 620.886C856.535 601.249 842.716 585.33 825.67 585.33C808.624 585.33 794.806 601.249 794.806 620.886C794.806 640.523 808.624 656.442 825.67 656.442Z" fill="#F8F7F7"/>
<path d="M1002.92 656.442C1019.96 656.442 1033.78 640.523 1033.78 620.886C1033.78 601.249 1019.96 585.33 1002.92 585.33C985.87 585.33 972.052 601.249 972.052 620.886C972.052 640.523 985.87 656.442 1002.92 656.442Z" fill="#F8F7F7"/>
<path d="M781.044 497.677C806.614 497.677 827.342 478.819 827.342 455.558C827.342 432.296 806.614 413.439 781.044 413.439C755.475 413.439 734.747 432.296 734.747 455.558C734.747 478.819 755.475 497.677 781.044 497.677Z" fill="#F8F7F7"/>
<path d="M842.301 449.545H722.296V497.681H842.301V449.545Z" fill="#F8F7F7"/>
<path d="M722.314 497.681C733.852 497.681 743.206 486.905 743.206 473.613C743.206 460.321 733.852 449.545 722.314 449.545C710.776 449.545 701.422 460.321 701.422 473.613C701.422 486.905 710.776 497.681 722.314 497.681Z" fill="#F8F7F7"/>
<path d="M842.431 497.681C853.97 497.681 863.323 486.905 863.323 473.613C863.323 460.321 853.97 449.545 842.431 449.545C830.893 449.545 821.539 460.321 821.539 473.613C821.539 486.905 830.893 497.681 842.431 497.681Z" fill="#F8F7F7"/>
<path d="M636.757 671.009C662.327 671.009 683.055 652.152 683.055 628.89C683.055 605.629 662.327 586.771 636.757 586.771C611.188 586.771 590.46 605.629 590.46 628.89C590.46 652.152 611.188 671.009 636.757 671.009Z" fill="#F8F7F7"/>
<path d="M698.014 622.878H578.009V671.013H698.014V622.878Z" fill="#F8F7F7"/>
<path d="M578.027 671.013C589.566 671.013 598.919 660.238 598.919 646.945C598.919 633.653 589.566 622.878 578.027 622.878C566.489 622.878 557.135 633.653 557.135 646.945C557.135 660.238 566.489 671.013 578.027 671.013Z" fill="#F8F7F7"/>
<path d="M698.144 671.013C709.682 671.013 719.036 660.238 719.036 646.945C719.036 633.653 709.682 622.878 698.144 622.878C686.606 622.878 677.252 633.653 677.252 646.945C677.252 660.238 686.606 671.013 698.144 671.013Z" fill="#F8F7F7"/>
<path d="M523.321 141.367H132.697V531.993H523.321V141.367Z" fill="url(#paint1_linear)"/>
<path d="M130.781 265.814C168.555 265.814 199.178 237.956 199.178 203.591C199.178 169.226 168.555 141.367 130.781 141.367C93.0063 141.367 62.384 169.226 62.384 203.591C62.384 237.956 93.0063 265.814 130.781 265.814Z" fill="#F8F7F7"/>
<path d="M221.361 194.697H44.0736V265.81H221.361V194.697Z" fill="#F8F7F7"/>
<path d="M44.1765 265.81C61.2226 265.81 75.0412 249.89 75.0412 230.253C75.0412 210.616 61.2226 194.697 44.1765 194.697C27.1304 194.697 13.3118 210.616 13.3118 230.253C13.3118 249.89 27.1304 265.81 44.1765 265.81Z" fill="#F8F7F7"/>
<path d="M221.423 265.81C238.469 265.81 252.287 249.89 252.287 230.253C252.287 210.616 238.469 194.697 221.423 194.697C204.376 194.697 190.558 210.616 190.558 230.253C190.558 249.89 204.376 265.81 221.423 265.81Z" fill="#F8F7F7"/>
<path d="M521.528 461.131C559.302 461.131 589.925 433.273 589.925 398.907C589.925 364.542 559.302 336.684 521.528 336.684C483.753 336.684 453.131 364.542 453.131 398.907C453.131 433.273 483.753 461.131 521.528 461.131Z" fill="#F8F7F7"/>
<path d="M612.108 390.013H434.821V461.126H612.108V390.013Z" fill="#F8F7F7"/>
<path d="M434.924 461.125C451.97 461.125 465.788 445.206 465.788 425.569C465.788 405.932 451.97 390.013 434.924 390.013C417.877 390.013 404.059 405.932 404.059 425.569C404.059 445.206 417.877 461.125 434.924 461.125Z" fill="#F8F7F7"/>
<path d="M612.17 461.125C629.216 461.125 643.034 445.206 643.034 425.569C643.034 405.932 629.216 390.013 612.17 390.013C595.124 390.013 581.305 405.932 581.305 425.569C581.305 445.206 595.124 461.125 612.17 461.125Z" fill="#F8F7F7"/>
<path d="M390.298 302.36C415.867 302.36 436.595 283.503 436.595 260.242C436.595 236.98 415.867 218.123 390.298 218.123C364.728 218.123 344 236.98 344 260.242C344 283.503 364.728 302.36 390.298 302.36Z" fill="#F8F7F7"/>
<path d="M451.554 254.229H331.549V302.364H451.554V254.229Z" fill="#F8F7F7"/>
<path d="M331.567 302.364C343.106 302.364 352.459 291.589 352.459 278.297C352.459 265.004 343.106 254.229 331.567 254.229C320.029 254.229 310.675 265.004 310.675 278.297C310.675 291.589 320.029 302.364 331.567 302.364Z" fill="#F8F7F7"/>
<path d="M451.684 302.364C463.223 302.364 472.577 291.589 472.577 278.297C472.577 265.004 463.223 254.229 451.684 254.229C440.146 254.229 430.792 265.004 430.792 278.297C430.792 291.589 440.146 302.364 451.684 302.364Z" fill="#F8F7F7"/>
<path d="M246.01 475.693C271.58 475.693 292.308 456.835 292.308 433.574C292.308 410.312 271.58 391.455 246.01 391.455C220.441 391.455 199.713 410.312 199.713 433.574C199.713 456.835 220.441 475.693 246.01 475.693Z" fill="#F8F7F7"/>
<path d="M307.267 427.561H187.262V475.697H307.267V427.561Z" fill="#F8F7F7"/>
<path d="M187.28 475.696C198.819 475.696 208.172 464.921 208.172 451.629C208.172 438.337 198.819 427.561 187.28 427.561C175.742 427.561 166.388 438.337 166.388 451.629C166.388 464.921 175.742 475.696 187.28 475.696Z" fill="#F8F7F7"/>
<path d="M307.397 475.696C318.936 475.696 328.29 464.921 328.29 451.629C328.29 438.337 318.936 427.561 307.397 427.561C295.859 427.561 286.505 438.337 286.505 451.629C286.505 464.921 295.859 475.696 307.397 475.696Z" fill="#F8F7F7"/>
<path d="M1304.81 532H914.191V922.626H1304.81V532Z" fill="url(#paint2_linear)"/>
<path d="M912.275 656.447C950.049 656.447 980.672 628.588 980.672 594.223C980.672 559.858 950.049 532 912.275 532C874.5 532 843.878 559.858 843.878 594.223C843.878 628.588 874.5 656.447 912.275 656.447Z" fill="#F8F7F7"/>
<path d="M1002.85 585.329H825.567V656.442H1002.85V585.329Z" fill="#F8F7F7"/>
<path d="M825.67 656.442C842.716 656.442 856.535 640.523 856.535 620.886C856.535 601.249 842.716 585.329 825.67 585.329C808.624 585.329 794.806 601.249 794.806 620.886C794.806 640.523 808.624 656.442 825.67 656.442Z" fill="#F8F7F7"/>
<path d="M1002.92 656.442C1019.96 656.442 1033.78 640.523 1033.78 620.886C1033.78 601.249 1019.96 585.329 1002.92 585.329C985.87 585.329 972.052 601.249 972.052 620.886C972.052 640.523 985.87 656.442 1002.92 656.442Z" fill="#F8F7F7"/>
<path d="M1171.79 692.993C1197.36 692.993 1218.09 674.136 1218.09 650.874C1218.09 627.613 1197.36 608.755 1171.79 608.755C1146.22 608.755 1125.49 627.613 1125.49 650.874C1125.49 674.136 1146.22 692.993 1171.79 692.993Z" fill="#F8F7F7"/>
<path d="M1233.05 644.861H1113.04V692.997H1233.05V644.861Z" fill="#F8F7F7"/>
<path d="M1113.06 692.997C1124.6 692.997 1133.95 682.221 1133.95 668.929C1133.95 655.637 1124.6 644.861 1113.06 644.861C1101.52 644.861 1092.17 655.637 1092.17 668.929C1092.17 682.221 1101.52 692.997 1113.06 692.997Z" fill="#F8F7F7"/>
<path d="M1233.18 692.997C1244.72 692.997 1254.07 682.221 1254.07 668.929C1254.07 655.637 1244.72 644.861 1233.18 644.861C1221.64 644.861 1212.29 655.637 1212.29 668.929C1212.29 682.221 1221.64 692.997 1233.18 692.997Z" fill="#F8F7F7"/>
<path d="M1304.81 141.367H914.191V531.993H1304.81V141.367Z" fill="url(#paint3_linear)"/>
<path d="M912.275 265.814C950.049 265.814 980.672 237.956 980.672 203.591C980.672 169.226 950.049 141.367 912.275 141.367C874.5 141.367 843.878 169.226 843.878 203.591C843.878 237.956 874.5 265.814 912.275 265.814Z" fill="#F8F7F7"/>
<path d="M1002.85 194.697H825.567V265.81H1002.85V194.697Z" fill="#F8F7F7"/>
<path d="M825.67 265.81C842.716 265.81 856.535 249.89 856.535 230.253C856.535 210.616 842.716 194.697 825.67 194.697C808.624 194.697 794.806 210.616 794.806 230.253C794.806 249.89 808.624 265.81 825.67 265.81Z" fill="#F8F7F7"/>
<path d="M1002.92 265.81C1019.96 265.81 1033.78 249.89 1033.78 230.253C1033.78 210.616 1019.96 194.697 1002.92 194.697C985.87 194.697 972.052 210.616 972.052 230.253C972.052 249.89 985.87 265.81 1002.92 265.81Z" fill="#F8F7F7"/>
<path d="M1303.02 461.131C1340.8 461.131 1371.42 433.273 1371.42 398.907C1371.42 364.542 1340.8 336.684 1303.02 336.684C1265.25 336.684 1234.62 364.542 1234.62 398.907C1234.62 433.273 1265.25 461.131 1303.02 461.131Z" fill="#F8F7F7"/>
<path d="M1393.6 390.013H1216.31V461.126H1393.6V390.013Z" fill="#F8F7F7"/>
<path d="M1216.42 461.125C1233.46 461.125 1247.28 445.206 1247.28 425.569C1247.28 405.932 1233.46 390.013 1216.42 390.013C1199.37 390.013 1185.55 405.932 1185.55 425.569C1185.55 445.206 1199.37 461.125 1216.42 461.125Z" fill="#F8F7F7"/>
<path d="M1171.79 302.36C1197.36 302.36 1218.09 283.503 1218.09 260.242C1218.09 236.98 1197.36 218.123 1171.79 218.123C1146.22 218.123 1125.49 236.98 1125.49 260.242C1125.49 283.503 1146.22 302.36 1171.79 302.36Z" fill="#F8F7F7"/>
<path d="M1233.05 254.229H1113.04V302.364H1233.05V254.229Z" fill="#F8F7F7"/>
<path d="M1113.06 302.364C1124.6 302.364 1133.95 291.589 1133.95 278.297C1133.95 265.004 1124.6 254.229 1113.06 254.229C1101.52 254.229 1092.17 265.004 1092.17 278.297C1092.17 291.589 1101.52 302.364 1113.06 302.364Z" fill="#F8F7F7"/>
<path d="M1233.18 302.364C1244.72 302.364 1254.07 291.589 1254.07 278.297C1254.07 265.004 1244.72 254.229 1233.18 254.229C1221.64 254.229 1212.29 265.004 1212.29 278.297C1212.29 291.589 1221.64 302.364 1233.18 302.364Z" fill="#F8F7F7"/>
<path d="M1027.5 475.693C1053.07 475.693 1073.8 456.835 1073.8 433.574C1073.8 410.312 1053.07 391.455 1027.5 391.455C1001.94 391.455 981.207 410.312 981.207 433.574C981.207 456.835 1001.94 475.693 1027.5 475.693Z" fill="#F8F7F7"/>
<path d="M1088.76 427.561H968.756V475.697H1088.76V427.561Z" fill="#F8F7F7"/>
<path d="M968.774 475.696C980.312 475.696 989.666 464.921 989.666 451.629C989.666 438.337 980.312 427.561 968.774 427.561C957.236 427.561 947.882 438.337 947.882 451.629C947.882 464.921 957.236 475.696 968.774 475.696Z" fill="#F8F7F7"/>
<path d="M1088.89 475.696C1100.43 475.696 1109.78 464.921 1109.78 451.629C1109.78 438.337 1100.43 427.561 1088.89 427.561C1077.35 427.561 1068 438.337 1068 451.629C1068 464.921 1077.35 475.696 1088.89 475.696Z" fill="#F8F7F7"/>
<path d="M523.321 532H132.697V922.626H523.321V532Z" fill="url(#paint4_linear)"/>
<path d="M130.781 656.447C168.555 656.447 199.178 628.588 199.178 594.223C199.178 559.858 168.555 532 130.781 532C93.0063 532 62.384 559.858 62.384 594.223C62.384 628.588 93.0063 656.447 130.781 656.447Z" fill="#F8F7F7"/>
<path d="M221.361 585.329H44.0736V656.442H221.361V585.329Z" fill="#F8F7F7"/>
<path d="M44.1765 656.442C61.2226 656.442 75.0412 640.523 75.0412 620.886C75.0412 601.249 61.2226 585.329 44.1765 585.329C27.1304 585.329 13.3118 601.249 13.3118 620.886C13.3118 640.523 27.1304 656.442 44.1765 656.442Z" fill="#F8F7F7"/>
<path d="M221.423 656.442C238.469 656.442 252.287 640.523 252.287 620.886C252.287 601.249 238.469 585.329 221.423 585.329C204.376 585.329 190.558 601.249 190.558 620.886C190.558 640.523 204.376 656.442 221.423 656.442Z" fill="#F8F7F7"/>
<path d="M390.298 692.993C415.867 692.993 436.595 674.136 436.595 650.874C436.595 627.613 415.867 608.755 390.298 608.755C364.728 608.755 344 627.613 344 650.874C344 674.136 364.728 692.993 390.298 692.993Z" fill="#F8F7F7"/>
<path d="M451.554 644.861H331.549V692.997H451.554V644.861Z" fill="#F8F7F7"/>
<path d="M331.567 692.997C343.106 692.997 352.459 682.221 352.459 668.929C352.459 655.637 343.106 644.861 331.567 644.861C320.029 644.861 310.675 655.637 310.675 668.929C310.675 682.221 320.029 692.997 331.567 692.997Z" fill="#F8F7F7"/>
<path d="M451.684 692.997C463.223 692.997 472.577 682.221 472.577 668.929C472.577 655.637 463.223 644.861 451.684 644.861C440.146 644.861 430.792 655.637 430.792 668.929C430.792 682.221 440.146 692.997 451.684 692.997Z" fill="#F8F7F7"/>
<path d="M914.069 -53.9375H523.443V336.687H914.069V-53.9375Z" fill="url(#paint5_linear)"/>
<path d="M912.275 265.826C950.049 265.826 980.672 237.967 980.672 203.602C980.672 169.237 950.049 141.379 912.275 141.379C874.5 141.379 843.878 169.237 843.878 203.602C843.878 237.967 874.5 265.826 912.275 265.826Z" fill="#F8F7F7"/>
<path d="M1002.85 194.708H825.567V265.821H1002.85V194.708Z" fill="#F8F7F7"/>
<path d="M825.67 265.821C842.716 265.821 856.535 249.902 856.535 230.264C856.535 210.627 842.716 194.708 825.67 194.708C808.624 194.708 794.806 210.627 794.806 230.264C794.806 249.902 808.624 265.821 825.67 265.821Z" fill="#F8F7F7"/>
<path d="M1002.92 265.821C1019.96 265.821 1033.78 249.902 1033.78 230.264C1033.78 210.627 1019.96 194.708 1002.92 194.708C985.87 194.708 972.052 210.627 972.052 230.264C972.052 249.902 985.87 265.821 1002.92 265.821Z" fill="#F8F7F7"/>
<path d="M636.757 280.399C662.327 280.399 683.055 261.541 683.055 238.28C683.055 215.018 662.327 196.161 636.757 196.161C611.188 196.161 590.46 215.018 590.46 238.28C590.46 261.541 611.188 280.399 636.757 280.399Z" fill="#F8F7F7"/>
<path d="M698.014 232.267H578.009V280.403H698.014V232.267Z" fill="#F8F7F7"/>
<path d="M578.027 280.403C589.566 280.403 598.919 269.627 598.919 256.335C598.919 243.043 589.566 232.267 578.027 232.267C566.489 232.267 557.135 243.043 557.135 256.335C557.135 269.627 566.489 280.403 578.027 280.403Z" fill="#F8F7F7"/>
<path d="M698.144 280.403C709.682 280.403 719.036 269.627 719.036 256.335C719.036 243.043 709.682 232.267 698.144 232.267C686.606 232.267 677.252 243.043 677.252 256.335C677.252 269.627 686.606 280.403 698.144 280.403Z" fill="#F8F7F7"/>
<path d="M132.941 336.684H-257.684V727.309H132.941V336.684Z" fill="url(#paint6_linear)"/>
<path d="M130.781 656.447C168.555 656.447 199.178 628.588 199.178 594.223C199.178 559.858 168.555 532 130.781 532C93.0063 532 62.384 559.858 62.384 594.223C62.384 628.588 93.0063 656.447 130.781 656.447Z" fill="#F8F7F7"/>
<path d="M221.361 585.329H44.0736V656.442H221.361V585.329Z" fill="#F8F7F7"/>
<path d="M44.1765 656.442C61.2226 656.442 75.0412 640.523 75.0412 620.886C75.0412 601.249 61.2226 585.329 44.1765 585.329C27.1304 585.329 13.3118 601.249 13.3118 620.886C13.3118 640.523 27.1304 656.442 44.1765 656.442Z" fill="#F8F7F7"/>
<path d="M221.423 656.442C238.469 656.442 252.287 640.523 252.287 620.886C252.287 601.249 238.469 585.329 221.423 585.329C204.376 585.329 190.558 601.249 190.558 620.886C190.558 640.523 204.376 656.442 221.423 656.442Z" fill="#F8F7F7"/>
<path d="M-0.0834132 497.677C25.4859 497.677 46.2139 478.819 46.2139 455.558C46.2139 432.296 25.4859 413.439 -0.0834132 413.439C-25.6527 413.439 -46.3807 432.296 -46.3807 455.558C-46.3807 478.819 -25.6527 497.677 -0.0834132 497.677Z" fill="#F8F7F7"/>
<path d="M61.173 449.545H-58.8319V497.681H61.173V449.545Z" fill="#F8F7F7"/>
<path d="M61.3033 497.681C72.8418 497.681 82.1955 486.905 82.1955 473.613C82.1955 460.321 72.8418 449.545 61.3033 449.545C49.7649 449.545 40.4111 460.321 40.4111 473.613C40.4111 486.905 49.7649 497.681 61.3033 497.681Z" fill="#F8F7F7"/>
<path d="M132.941 -53.9375H-257.684V336.687H132.941V-53.9375Z" fill="url(#paint7_linear)"/>
<path d="M130.781 265.826C168.555 265.826 199.178 237.967 199.178 203.602C199.178 169.237 168.555 141.379 130.781 141.379C93.0063 141.379 62.384 169.237 62.384 203.602C62.384 237.967 93.0063 265.826 130.781 265.826Z" fill="#F8F7F7"/>
<path d="M221.361 194.708H44.0735V265.821H221.361V194.708Z" fill="#F8F7F7"/>
<path d="M44.1765 265.821C61.2226 265.821 75.0412 249.902 75.0412 230.264C75.0412 210.627 61.2226 194.708 44.1765 194.708C27.1304 194.708 13.3118 210.627 13.3118 230.264C13.3118 249.902 27.1304 265.821 44.1765 265.821Z" fill="#F8F7F7"/>
<path d="M221.423 265.821C238.469 265.821 252.287 249.902 252.287 230.264C252.287 210.627 238.469 194.708 221.423 194.708C204.376 194.708 190.558 210.627 190.558 230.264C190.558 249.902 204.376 265.821 221.423 265.821Z" fill="#F8F7F7"/>
<path d="M523.688 -249.254H133.062V141.372H523.688V-249.254Z" fill="url(#paint8_linear)"/>
<path d="M1304.82 -249.254H914.19V141.372H1304.82V-249.254Z" fill="url(#paint9_linear)"/>
<path d="M1302.66 461.131C1340.43 461.131 1371.05 433.273 1371.05 398.907C1371.05 364.542 1340.43 336.684 1302.66 336.684C1264.88 336.684 1234.26 364.542 1234.26 398.907C1234.26 433.273 1264.88 461.131 1302.66 461.131Z" fill="#F8F7F7"/>
<path d="M1393.24 390.013H1215.95V461.125H1393.24V390.013Z" fill="#F8F7F7"/>
<path d="M1216.05 461.126C1233.1 461.126 1246.92 445.207 1246.92 425.569C1246.92 405.932 1233.1 390.013 1216.05 390.013C1199.01 390.013 1185.19 405.932 1185.19 425.569C1185.19 445.207 1199.01 461.126 1216.05 461.126Z" fill="#F8F7F7"/>
</g>
<defs>
<linearGradient id="paint0_linear" x1="897.031" y1="355.348" x2="516.776" y2="735.109" gradientUnits="userSpaceOnUse">
<stop stop-color="white"/>
<stop offset="0.48" stop-color="white"/>
<stop offset="1" stop-color="white"/>
</linearGradient>
<linearGradient id="paint1_linear" x1="506.284" y1="160.032" x2="126.028" y2="539.793" gradientUnits="userSpaceOnUse">
<stop stop-color="white"/>
<stop offset="0.48" stop-color="white"/>
<stop offset="1" stop-color="white"/>
</linearGradient>
<linearGradient id="paint2_linear" x1="1287.78" y1="550.665" x2="907.522" y2="930.425" gradientUnits="userSpaceOnUse">
<stop stop-color="white"/>
<stop offset="0.48" stop-color="white"/>
<stop offset="1" stop-color="white"/>
</linearGradient>
<linearGradient id="paint3_linear" x1="1287.78" y1="160.032" x2="907.522" y2="539.792" gradientUnits="userSpaceOnUse">
<stop stop-color="white"/>
<stop offset="0.48" stop-color="white"/>
<stop offset="1" stop-color="white"/>
</linearGradient>
<linearGradient id="paint4_linear" x1="506.284" y1="550.665" x2="126.028" y2="930.425" gradientUnits="userSpaceOnUse">
<stop stop-color="white"/>
<stop offset="0.48" stop-color="white"/>
<stop offset="1" stop-color="white"/>
</linearGradient>
<linearGradient id="paint5_linear" x1="897.031" y1="-35.273" x2="516.777" y2="344.488" gradientUnits="userSpaceOnUse">
<stop stop-color="white"/>
<stop offset="0.48" stop-color="white"/>
<stop offset="1" stop-color="white"/>
</linearGradient>
<linearGradient id="paint6_linear" x1="115.904" y1="355.348" x2="-264.351" y2="735.11" gradientUnits="userSpaceOnUse">
<stop stop-color="white"/>
<stop offset="0.48" stop-color="white"/>
<stop offset="1" stop-color="white"/>
</linearGradient>
<linearGradient id="paint7_linear" x1="115.904" y1="-35.273" x2="-264.351" y2="344.488" gradientUnits="userSpaceOnUse">
<stop stop-color="white"/>
<stop offset="0.48" stop-color="white"/>
<stop offset="1" stop-color="white"/>
</linearGradient>
<linearGradient id="paint8_linear" x1="506.651" y1="-230.589" x2="126.396" y2="149.172" gradientUnits="userSpaceOnUse">
<stop stop-color="white"/>
<stop offset="0.48" stop-color="white"/>
<stop offset="1" stop-color="white"/>
</linearGradient>
<linearGradient id="paint9_linear" x1="1287.78" y1="-230.589" x2="907.524" y2="149.173" gradientUnits="userSpaceOnUse">
<stop stop-color="white"/>
<stop offset="0.48" stop-color="white"/>
<stop offset="1" stop-color="white"/>
</linearGradient>
<clipPath id="clip0">
<rect x="-31" y="-218" width="1500" height="1500" fill="white"/>
</clipPath>
</defs>
</svg>
