<svg width="222" height="49" viewBox="0 0 222 49" fill="none" xmlns="http://www.w3.org/2000/svg">
<path d="M18.248 4.27148C18.248 5.38477 17.8672 6.39551 17.1055 7.30371C16.3438 8.21191 15.4062 9.03223 14.293 9.76465C13.209 10.4678 12.0664 11.083 10.8652 11.6104C9.66406 12.1377 8.62402 12.5771 7.74512 12.9287C7.74512 13.5439 7.73047 14.1738 7.70117 14.8184C7.67188 15.4629 7.62793 16.1074 7.56934 16.752C8.50684 16.2832 9.56152 15.8438 10.7334 15.4336C11.9053 15.0234 13.0186 14.8184 14.0732 14.8184C14.9229 14.8184 15.6113 14.9941 16.1387 15.3457C16.6953 15.6973 16.9736 16.3125 16.9736 17.1914C16.9736 18.1582 16.6221 19.0225 15.9189 19.7842C15.2451 20.5459 14.4248 21.2197 13.458 21.8057C12.4912 22.3916 11.4805 22.8896 10.4258 23.2998C9.37109 23.71 8.47754 24.0322 7.74512 24.2666C7.74512 25.2334 7.73047 26.2002 7.70117 27.167C7.67188 28.1045 7.62793 29.042 7.56934 29.9795C7.54004 30.4482 7.48145 31.0342 7.39355 31.7373C7.33496 32.4404 7.18848 33.1289 6.9541 33.8027C6.74902 34.4473 6.44141 35.0186 6.03125 35.5166C5.62109 35.9854 5.09375 36.2197 4.44922 36.2197C3.83398 36.2197 3.30664 35.9268 2.86719 35.3408C2.42773 34.7256 2.04688 33.9492 1.72461 33.0117C1.43164 32.0742 1.18262 31.0342 0.977539 29.8916C0.801758 28.7197 0.655273 27.5771 0.538086 26.4639C0.450195 25.3506 0.391602 24.3252 0.362305 23.3877C0.362305 22.4502 0.362305 21.7324 0.362305 21.2344C0.362305 20.8535 0.362305 20.2969 0.362305 19.5645C0.391602 18.8027 0.40625 17.9678 0.40625 17.0596C0.435547 16.1514 0.464844 15.1992 0.494141 14.2031C0.552734 13.207 0.611328 12.2695 0.669922 11.3906C0.728516 10.4824 0.801758 9.69141 0.889648 9.01758C1.00684 8.31445 1.13867 7.80176 1.28516 7.47949C1.60742 6.83496 2.36914 6.20508 3.57031 5.58984C4.80078 4.94531 6.16309 4.38867 7.65723 3.91992C9.15137 3.42187 10.6016 3.02637 12.0078 2.7334C13.4434 2.41113 14.542 2.25 15.3037 2.25C15.6553 2.25 15.9922 2.2793 16.3145 2.33789C16.666 2.36719 16.9883 2.45508 17.2812 2.60156C17.5742 2.74805 17.8086 2.95312 17.9844 3.2168C18.1602 3.48047 18.248 3.83203 18.248 4.27148ZM25.7188 5.32617C25.7188 5.73633 25.6016 6.10254 25.3672 6.4248C25.1621 6.74707 24.8838 7.04004 24.5322 7.30371C24.1807 7.53809 23.7998 7.72852 23.3896 7.875C22.9795 7.99219 22.5986 8.05078 22.2471 8.05078C21.6611 8.05078 21.1484 7.9043 20.709 7.61133C20.2695 7.31836 20.0498 6.86426 20.0498 6.24902C20.0498 5.80957 20.1523 5.42871 20.3574 5.10645C20.5918 4.75488 20.8701 4.47656 21.1924 4.27148C21.5146 4.03711 21.8809 3.86133 22.291 3.74414C22.7012 3.62695 23.0967 3.56836 23.4775 3.56836C24.0342 3.56836 24.5469 3.7002 25.0156 3.96387C25.4844 4.22754 25.7188 4.68164 25.7188 5.32617ZM26.0703 20.2676C26.0703 20.6777 26.0703 21.1172 26.0703 21.5859C26.0703 22.0254 26.0557 22.4502 26.0264 22.8604C25.9971 23.3584 25.9824 24.0322 25.9824 24.8818C25.9824 25.7021 25.9531 26.5957 25.8945 27.5625C25.8359 28.5293 25.7334 29.5107 25.5869 30.5068C25.4697 31.5029 25.2646 32.4111 24.9717 33.2314C24.6787 34.0518 24.2832 34.7256 23.7852 35.2529C23.3164 35.751 22.7158 36.0146 21.9834 36.0439C21.4268 36.0732 20.958 35.8535 20.5771 35.3848C20.1963 34.916 19.874 34.3154 19.6104 33.583C19.376 32.8213 19.2002 31.9863 19.083 31.0781C18.9658 30.1406 18.8779 29.2471 18.8193 28.3975C18.7607 27.5186 18.7314 26.7129 18.7314 25.9805C18.7314 25.248 18.7314 24.7061 18.7314 24.3545C18.7314 23.8857 18.7314 23.2266 18.7314 22.377C18.7314 21.498 18.7607 20.5605 18.8193 19.5645C18.8779 18.5684 18.9805 17.5576 19.127 16.5322C19.3027 15.5068 19.5371 14.5693 19.8301 13.7197C20.1523 12.8701 20.5625 12.1816 21.0605 11.6543C21.5586 11.127 22.1885 10.8633 22.9502 10.8633C23.7412 10.8633 24.3418 11.2588 24.752 12.0498C25.1621 12.8408 25.4697 13.7637 25.6748 14.8184C25.8799 15.873 25.9971 16.9277 26.0264 17.9824C26.0557 19.0078 26.0703 19.7695 26.0703 20.2676ZM41.6709 37.2305C41.1729 37.2305 40.7773 36.9961 40.4844 36.5273C40.1914 36.0879 39.9717 35.5752 39.8252 34.9893C39.6787 34.4033 39.5762 33.8174 39.5176 33.2314C39.4883 32.6162 39.4736 32.1475 39.4736 31.8252C39.4736 30.9463 39.5176 30.0674 39.6055 29.1885C39.7227 28.3096 39.8398 27.4307 39.957 26.5518C40.1035 25.6729 40.2207 24.7939 40.3086 23.915C40.4258 23.0361 40.4844 22.1572 40.4844 21.2783C40.4844 20.9268 40.4697 20.5459 40.4404 20.1357C40.4111 19.7256 40.3379 19.3447 40.2207 18.9932C40.1328 18.6123 39.9717 18.3047 39.7373 18.0703C39.5029 17.8359 39.1953 17.7188 38.8145 17.7188C38.5508 17.7188 38.2578 17.9385 37.9355 18.3779C37.6133 18.7881 37.3057 19.2715 37.0127 19.8281C36.749 20.3555 36.5146 20.8975 36.3096 21.4541C36.1338 21.9814 36.0459 22.377 36.0459 22.6406C36.0459 23.2852 36.0459 23.9443 36.0459 24.6182C36.0752 25.2627 36.0898 25.9219 36.0898 26.5957V29.1445C36.0605 29.6719 36.0166 30.2139 35.958 30.7705C35.8994 31.3271 35.8115 31.8691 35.6943 32.3965C35.6064 32.9238 35.4746 33.4365 35.2988 33.9346C35.123 34.4033 34.8887 34.8281 34.5957 35.209C34.332 35.5605 34.0098 35.8535 33.6289 36.0879C33.248 36.3223 32.7939 36.4395 32.2666 36.4395C31.6807 36.4395 31.1973 36.249 30.8164 35.8682C30.4355 35.4873 30.1279 35.0039 29.8936 34.418C29.6592 33.8027 29.4834 33.1289 29.3662 32.3965C29.2783 31.6348 29.2051 30.9023 29.1465 30.1992C29.1172 29.4668 29.1025 28.8076 29.1025 28.2217C29.1318 27.6064 29.1465 27.123 29.1465 26.7715V24.7061C29.1465 23.5928 29.1172 22.4941 29.0586 21.4102C29.0293 20.3262 29.0146 19.2422 29.0146 18.1582C29.0146 17.5723 29.0146 16.8252 29.0146 15.917C29.0439 15.0088 29.1611 14.1299 29.3662 13.2803C29.5713 12.4014 29.9082 11.6543 30.377 11.0391C30.8457 10.4238 31.5342 10.1162 32.4424 10.1162C32.8525 10.1162 33.2188 10.248 33.541 10.5117C33.8633 10.7754 34.1416 11.0977 34.376 11.4785C34.6396 11.8594 34.8447 12.2695 34.9912 12.709C35.167 13.1484 35.2988 13.5293 35.3867 13.8516C35.6797 13.4414 36.0166 13.0459 36.3975 12.665C36.8076 12.2842 37.2617 11.9473 37.7598 11.6543C38.2578 11.3613 38.8145 11.127 39.4297 10.9512C40.0449 10.7754 40.748 10.6875 41.5391 10.6875C43.0332 10.6875 44.1904 11.0537 45.0107 11.7861C45.8604 12.4893 46.4756 13.3828 46.8564 14.4668C47.2666 15.5215 47.5156 16.6641 47.6035 17.8945C47.6914 19.125 47.7354 20.2383 47.7354 21.2344C47.7354 21.7324 47.6914 22.4795 47.6035 23.4756C47.5156 24.4424 47.3691 25.5264 47.1641 26.7275C46.9883 27.8994 46.7393 29.1152 46.417 30.375C46.0947 31.6055 45.7139 32.7334 45.2744 33.7588C44.835 34.7842 44.3076 35.6191 43.6924 36.2637C43.1064 36.9082 42.4326 37.2305 41.6709 37.2305ZM69.1367 7.08398C69.1367 9.22266 69.0488 11.3467 68.873 13.4561C68.7266 15.5654 68.6533 17.6895 68.6533 19.8281C68.6533 21.5566 68.6973 23.2705 68.7852 24.9697C68.9023 26.6689 68.9609 28.3828 68.9609 30.1113C68.9609 30.5801 68.9463 31.1514 68.917 31.8252C68.8877 32.4697 68.7852 33.0996 68.6094 33.7148C68.4629 34.3301 68.1992 34.8574 67.8184 35.2969C67.4668 35.7363 66.9541 35.9561 66.2803 35.9561C65.4014 35.9561 64.6689 35.6338 64.083 34.9893C63.5264 34.3154 63.1748 33.5684 63.0283 32.748C62.4717 33.8027 61.666 34.6963 60.6113 35.4287C59.5566 36.1611 58.4141 36.5273 57.1836 36.5273C55.8652 36.5273 54.7227 36.0732 53.7559 35.165C52.8184 34.2568 52.0273 33.1582 51.3828 31.8691C50.7676 30.5801 50.2988 29.2324 49.9766 27.8262C49.6836 26.4199 49.5371 25.2041 49.5371 24.1787C49.5371 23.4463 49.5811 22.6113 49.6689 21.6738C49.7568 20.7363 49.9033 19.7842 50.1084 18.8174C50.3428 17.8506 50.6357 16.9131 50.9873 16.0049C51.3389 15.0674 51.7783 14.2324 52.3057 13.5C52.8623 12.7676 53.5068 12.1816 54.2393 11.7422C55.001 11.3027 55.8652 11.083 56.832 11.083C57.8867 11.083 58.8975 11.3906 59.8643 12.0059C60.8311 12.6211 61.5635 13.3828 62.0615 14.291L62.457 7.30371C62.4863 6.74707 62.5303 6.10254 62.5889 5.37012C62.6475 4.6084 62.7646 3.89063 62.9404 3.2168C63.1455 2.54297 63.4531 1.97168 63.8633 1.50293C64.2734 1.03418 64.874 0.799805 65.665 0.799805C66.5146 0.799805 67.1738 1.00488 67.6426 1.41504C68.1113 1.8252 68.4482 2.35254 68.6533 2.99707C68.8877 3.6123 69.0195 4.28613 69.0488 5.01855C69.1074 5.75098 69.1367 6.43945 69.1367 7.08398ZM61.9736 26.5957C61.9736 25.9219 61.959 25.2627 61.9297 24.6182C61.9004 23.9736 61.9004 23.3145 61.9297 22.6406C61.7539 22.2598 61.5488 21.8496 61.3145 21.4102C61.0801 20.9414 60.7871 20.5166 60.4355 20.1357C60.1133 19.7256 59.7471 19.3887 59.3369 19.125C58.9268 18.8613 58.4873 18.7295 58.0186 18.7295C57.4912 18.7295 57.0664 18.8906 56.7441 19.2129C56.4219 19.5352 56.1875 19.9307 56.041 20.3994C55.8945 20.8389 55.792 21.3223 55.7334 21.8496C55.7041 22.377 55.6895 22.8311 55.6895 23.2119C55.6895 23.5635 55.7188 24.0908 55.7773 24.7939C55.8359 25.4678 55.9385 26.1562 56.085 26.8594C56.2607 27.5625 56.4951 28.1777 56.7881 28.7051C57.0811 29.2324 57.4766 29.4961 57.9746 29.4961C58.3555 29.4961 58.7363 29.4229 59.1172 29.2764C59.498 29.1006 59.8496 28.8955 60.1719 28.6611C60.5234 28.3975 60.8457 28.1191 61.1387 27.8262C61.4609 27.5039 61.7393 27.2109 61.9736 26.9473V26.5957ZM102.096 31.21C102.008 31.9717 101.876 32.7188 101.7 33.4512C101.554 34.1836 101.363 34.8428 101.129 35.4287C100.895 35.9854 100.587 36.4248 100.206 36.7471C99.8545 37.0986 99.4443 37.2744 98.9756 37.2744C98.5068 37.2744 98.082 36.9082 97.7012 36.1758C97.3203 35.4727 96.9541 34.5352 96.6025 33.3633C96.2803 32.1621 95.9727 30.8145 95.6797 29.3203C95.416 27.8262 95.167 26.3174 94.9326 24.7939C94.7275 23.2412 94.5518 21.7324 94.4053 20.2676C94.2588 18.8027 94.1416 17.5283 94.0537 16.4443C93.8779 17.5576 93.6729 18.8027 93.4385 20.1797C93.2041 21.5566 92.9258 22.9629 92.6035 24.3984C92.2812 25.8047 91.9297 27.1963 91.5488 28.5732C91.168 29.9209 90.7578 31.1367 90.3184 32.2207C89.8789 33.2754 89.4102 34.125 88.9121 34.7695C88.4141 35.4141 87.8867 35.7363 87.3301 35.7363C86.832 35.7363 86.334 35.3994 85.8359 34.7256C85.3379 34.0518 84.8545 33.1729 84.3857 32.0889C83.917 30.9756 83.4775 29.7451 83.0674 28.3975C82.6572 27.0498 82.2764 25.7021 81.9248 24.3545C81.5732 22.9775 81.2656 21.6885 81.002 20.4873C80.7383 19.2568 80.5332 18.2314 80.3867 17.4111C80.3867 18.0264 80.3721 18.7148 80.3428 19.4766C80.3428 20.209 80.3428 20.7363 80.3428 21.0586C80.3428 21.2051 80.3281 21.6885 80.2988 22.5088C80.2988 23.3291 80.2549 24.3105 80.167 25.4531C80.0791 26.5957 79.9473 27.8262 79.7715 29.1445C79.5957 30.4336 79.332 31.6348 78.9805 32.748C78.6582 33.8613 78.248 34.7988 77.75 35.5605C77.252 36.3223 76.6367 36.7324 75.9043 36.791C75.3184 36.5273 74.8203 36.0879 74.4102 35.4727C74.0293 34.8281 73.707 34.0811 73.4434 33.2314C73.1797 32.3818 72.9746 31.4736 72.8281 30.5068C72.6816 29.54 72.5645 28.6025 72.4766 27.6943C72.3887 26.7568 72.3301 25.8926 72.3008 25.1016C72.3008 24.3105 72.3008 23.666 72.3008 23.168C72.3008 22.2891 72.3447 21.1904 72.4326 19.8721C72.5498 18.5244 72.7256 17.1182 72.96 15.6533C73.1943 14.1885 73.502 12.7236 73.8828 11.2588C74.2637 9.79395 74.7178 8.49023 75.2451 7.34766C75.8018 6.17578 76.4316 5.22363 77.1348 4.49121C77.8672 3.75879 78.7021 3.39258 79.6396 3.39258C80.0791 3.39258 80.5479 3.6416 81.0459 4.13965C81.5439 4.6377 82.042 5.29688 82.54 6.11719C83.0381 6.9082 83.5215 7.80176 83.9902 8.79785C84.459 9.79395 84.8984 10.8047 85.3086 11.8301C85.748 12.8262 86.1289 13.793 86.4512 14.7305C86.7734 15.6387 87.0371 16.415 87.2422 17.0596C87.4766 16.3564 87.7695 15.5361 88.1211 14.5986C88.4727 13.6611 88.8535 12.6943 89.2637 11.6982C89.7031 10.6729 90.1719 9.67676 90.6699 8.70996C91.1973 7.71387 91.7393 6.83496 92.2959 6.07324C92.8525 5.28223 93.4092 4.65234 93.9658 4.18359C94.5518 3.68555 95.1377 3.43652 95.7236 3.43652C96.749 3.43652 97.6279 3.81738 98.3604 4.5791C99.0928 5.34082 99.708 6.33691 100.206 7.56738C100.704 8.76855 101.1 10.1309 101.393 11.6543C101.686 13.1484 101.905 14.6426 102.052 16.1367C102.228 17.6016 102.33 18.9785 102.359 20.2676C102.418 21.5566 102.447 22.5967 102.447 23.3877C102.447 23.71 102.447 24.1494 102.447 24.7061C102.447 25.2627 102.433 25.8926 102.403 26.5957C102.403 27.2988 102.374 28.0459 102.315 28.8369C102.257 29.6279 102.184 30.4189 102.096 31.21ZM115.104 48.7881C114.4 48.7881 113.595 48.6709 112.687 48.4365C111.808 48.2314 110.973 47.9238 110.182 47.5137C109.391 47.1035 108.717 46.6055 108.16 46.0195C107.633 45.4336 107.369 44.7598 107.369 43.998C107.369 43.7051 107.442 43.4121 107.589 43.1191C107.735 42.8262 107.926 42.5625 108.16 42.3281C108.424 42.123 108.702 41.9473 108.995 41.8008C109.288 41.6836 109.596 41.625 109.918 41.625C110.27 41.625 110.606 41.6689 110.929 41.7568C111.28 41.874 111.632 42.0059 111.983 42.1523C112.364 42.2988 112.73 42.4307 113.082 42.5479C113.463 42.665 113.858 42.7236 114.269 42.7236C115.001 42.7236 115.631 42.4746 116.158 41.9766C116.715 41.4785 117.184 40.8193 117.564 39.999C117.945 39.208 118.253 38.3145 118.487 37.3184C118.722 36.3516 118.897 35.3848 119.015 34.418C119.161 33.4512 119.264 32.543 119.322 31.6934C119.381 30.8438 119.425 30.1553 119.454 29.6279C118.429 31.1807 117.403 32.3818 116.378 33.2314C115.382 34.0518 114.151 34.4619 112.687 34.4619C111.573 34.4619 110.592 34.2275 109.742 33.7588C108.922 33.29 108.219 32.6748 107.633 31.9131C107.047 31.1514 106.563 30.2871 106.183 29.3203C105.802 28.3242 105.509 27.2988 105.304 26.2441C105.128 25.1895 105.011 24.1641 104.952 23.168C104.894 22.1426 104.894 21.2051 104.952 20.3555C104.981 19.7109 105.055 18.876 105.172 17.8506C105.318 16.7959 105.538 15.7705 105.831 14.7744C106.124 13.7783 106.534 12.9434 107.062 12.2695C107.589 11.5664 108.277 11.2441 109.127 11.3027C109.684 11.332 110.138 11.5811 110.489 12.0498C110.841 12.4893 111.119 13.0459 111.324 13.7197C111.559 14.3936 111.72 15.1406 111.808 15.9609C111.925 16.752 111.998 17.543 112.027 18.334C112.057 19.125 112.057 19.8574 112.027 20.5312C112.027 21.1758 112.027 21.6738 112.027 22.0254C112.027 22.5234 112.042 23.0215 112.071 23.5195C112.101 24.0176 112.203 24.4717 112.379 24.8818C112.555 25.2627 112.818 25.5703 113.17 25.8047C113.551 26.0391 114.078 26.1562 114.752 26.1562C115.514 26.1562 116.114 25.9658 116.554 25.585C117.022 25.2041 117.359 24.7354 117.564 24.1787C117.799 23.5928 117.945 22.9775 118.004 22.333C118.062 21.6592 118.092 21.0293 118.092 20.4434C118.092 20.0332 118.092 19.5352 118.092 18.9492C118.092 18.3633 118.092 17.748 118.092 17.1035C118.121 16.459 118.18 15.8291 118.268 15.2139C118.385 14.5693 118.546 13.998 118.751 13.5C118.985 12.9727 119.278 12.5479 119.63 12.2256C120.011 11.9033 120.494 11.7422 121.08 11.7422C121.812 11.7422 122.442 12.0352 122.97 12.6211C123.497 13.1777 123.937 13.9248 124.288 14.8623C124.669 15.7705 124.962 16.7812 125.167 17.8945C125.401 19.0078 125.577 20.1211 125.694 21.2344C125.812 22.3184 125.885 23.3291 125.914 24.2666C125.973 25.1748 126.002 25.8926 126.002 26.4199C126.002 27.6504 125.958 29.0566 125.87 30.6387C125.782 32.1914 125.606 33.8027 125.343 35.4727C125.108 37.1133 124.742 38.7246 124.244 40.3066C123.746 41.918 123.087 43.3535 122.267 44.6133C121.476 45.873 120.494 46.8838 119.322 47.6455C118.15 48.4072 116.744 48.7881 115.104 48.7881ZM147.887 5.98535C147.887 6.71777 147.594 7.3916 147.008 8.00684C146.451 8.59277 145.763 9.12012 144.942 9.58887C144.151 10.0283 143.331 10.3945 142.481 10.6875C141.632 10.9805 140.929 11.1855 140.372 11.3027C140.138 13.5586 139.947 15.8145 139.801 18.0703C139.684 20.2969 139.625 22.5381 139.625 24.7939C139.625 25.9951 139.654 27.1816 139.713 28.3535C139.771 29.5254 139.801 30.6973 139.801 31.8691C139.801 32.3965 139.742 32.9824 139.625 33.627C139.537 34.2422 139.361 34.8281 139.098 35.3848C138.863 35.9414 138.526 36.4102 138.087 36.791C137.647 37.1719 137.105 37.3623 136.461 37.3623C135.699 37.3623 135.084 37.1426 134.615 36.7031C134.176 36.293 133.824 35.7803 133.561 35.165C133.326 34.5498 133.165 33.9053 133.077 33.2314C132.989 32.5283 132.945 31.8984 132.945 31.3418C132.887 29.584 132.843 27.8262 132.813 26.0684C132.784 24.2812 132.77 22.4941 132.77 20.707C132.77 19.2129 132.77 17.748 132.77 16.3125C132.799 14.877 132.813 13.4121 132.813 11.918C132.403 11.9766 131.979 12.0205 131.539 12.0498C131.129 12.0791 130.704 12.0938 130.265 12.0938C129.913 12.0938 129.444 12.0645 128.858 12.0059C128.302 11.918 127.76 11.7861 127.232 11.6104C126.705 11.4053 126.251 11.1416 125.87 10.8193C125.489 10.4678 125.299 10.0283 125.299 9.50098C125.299 8.62207 125.65 7.86035 126.354 7.21582C127.027 6.54199 127.892 5.9707 128.946 5.50195C130.03 5.00391 131.217 4.59375 132.506 4.27148C133.824 3.91992 135.113 3.65625 136.373 3.48047C137.662 3.27539 138.834 3.12891 139.889 3.04102C140.973 2.95312 141.808 2.90918 142.394 2.90918C142.95 2.90918 143.536 2.93848 144.151 2.99707C144.796 3.02637 145.396 3.14355 145.953 3.34863C146.51 3.55371 146.964 3.86133 147.315 4.27148C147.696 4.68164 147.887 5.25293 147.887 5.98535ZM163.971 23.4316C163.971 25.043 163.81 26.6396 163.487 28.2217C163.165 29.8037 162.623 31.2246 161.861 32.4844C161.1 33.7148 160.074 34.7109 158.785 35.4727C157.525 36.2344 155.943 36.6152 154.039 36.6152C152.164 36.6152 150.597 36.249 149.337 35.5166C148.077 34.7549 147.066 33.7588 146.305 32.5283C145.572 31.2979 145.045 29.9062 144.723 28.3535C144.43 26.8008 144.283 25.2188 144.283 23.6074C144.283 21.8496 144.488 20.1064 144.898 18.3779C144.986 17.9092 145.147 17.2646 145.382 16.4443C145.646 15.5947 145.968 14.7744 146.349 13.9834C146.759 13.1631 147.213 12.46 147.711 11.874C148.238 11.2881 148.81 10.9951 149.425 10.9951C150.011 10.9951 150.479 11.1562 150.831 11.4785C151.183 11.8008 151.461 12.2109 151.666 12.709C151.871 13.1777 152.003 13.6904 152.062 14.2471C152.12 14.7744 152.149 15.2578 152.149 15.6973C152.149 16.3711 152.091 17.0303 151.974 17.6748C151.886 18.3193 151.783 18.9639 151.666 19.6084C151.549 20.4873 151.432 21.3662 151.314 22.2451C151.227 23.124 151.183 24.0029 151.183 24.8818C151.183 25.3213 151.197 25.8193 151.227 26.376C151.285 26.9033 151.402 27.416 151.578 27.9141C151.754 28.4121 152.003 28.8369 152.325 29.1885C152.647 29.5107 153.102 29.6719 153.688 29.6719C154.449 29.6719 155.05 29.4668 155.489 29.0566C155.958 28.6465 156.295 28.1338 156.5 27.5186C156.734 26.9033 156.881 26.2441 156.939 25.541C156.998 24.8379 157.027 24.1934 157.027 23.6074C157.027 22.3184 156.939 21.0586 156.764 19.8281C156.588 18.5684 156.427 17.2939 156.28 16.0049C156.251 15.8584 156.236 15.6533 156.236 15.3896C156.236 14.9502 156.31 14.5107 156.456 14.0713C156.603 13.6318 156.808 13.2363 157.071 12.8848C157.335 12.5332 157.657 12.2549 158.038 12.0498C158.419 11.8154 158.844 11.6982 159.312 11.6982C159.957 11.6982 160.528 11.9326 161.026 12.4014C161.524 12.8408 161.935 13.4268 162.257 14.1592C162.608 14.8623 162.887 15.668 163.092 16.5762C163.326 17.4551 163.502 18.334 163.619 19.2129C163.766 20.0625 163.854 20.8682 163.883 21.6299C163.941 22.3916 163.971 22.9922 163.971 23.4316ZM176.891 37.582C174.811 37.582 173.185 37.3037 172.013 36.7471C170.87 36.2197 170.006 35.458 169.42 34.4619C168.863 33.4658 168.526 32.2646 168.409 30.8584C168.292 29.4521 168.233 27.8848 168.233 26.1562C168.233 24.7793 168.277 23.4023 168.365 22.0254C168.453 20.6191 168.585 19.125 168.761 17.543C168.351 17.543 168.028 17.5576 167.794 17.5869C167.56 17.5869 167.369 17.5869 167.223 17.5869C166.285 17.5869 165.479 17.3818 164.806 16.9717C164.103 16.5615 163.751 15.9316 163.751 15.082C163.751 14.5547 163.956 14.0859 164.366 13.6758C164.747 13.2656 165.245 12.9141 165.86 12.6211C166.476 12.3281 167.135 12.0938 167.838 11.918C168.57 11.7422 169.259 11.625 169.903 11.5664C169.903 10.7461 169.962 9.83789 170.079 8.8418C170.196 7.8457 170.401 6.92285 170.694 6.07324C171.017 5.19434 171.441 4.46191 171.969 3.87598C172.496 3.29004 173.17 2.99707 173.99 2.99707C174.459 2.99707 174.869 3.14355 175.221 3.43652C175.602 3.7002 175.909 4.05176 176.144 4.49121C176.378 4.90137 176.554 5.37012 176.671 5.89746C176.788 6.4248 176.847 6.9375 176.847 7.43555C176.847 8.02148 176.803 8.62207 176.715 9.2373C176.627 9.85254 176.466 10.6143 176.231 11.5225C176.729 11.4639 177.066 11.4346 177.242 11.4346C177.418 11.4053 177.579 11.3906 177.726 11.3906C178.224 11.3906 178.736 11.4346 179.264 11.5225C179.82 11.6104 180.318 11.7568 180.758 11.9619C181.227 12.167 181.607 12.4453 181.9 12.7969C182.193 13.1191 182.34 13.5146 182.34 13.9834C182.34 14.5107 182.12 14.9795 181.681 15.3896C181.271 15.7998 180.743 16.1514 180.099 16.4443C179.454 16.7373 178.766 16.9717 178.033 17.1475C177.301 17.2939 176.612 17.3965 175.968 17.4551C175.792 18.6562 175.66 19.7695 175.572 20.7949C175.514 21.791 175.44 22.8018 175.353 23.8271C175.294 24.3252 175.235 24.8379 175.177 25.3652C175.147 25.8633 175.133 26.376 175.133 26.9033C175.133 27.2842 175.147 27.7383 175.177 28.2656C175.206 28.7637 175.309 29.2471 175.484 29.7158C175.66 30.1846 175.938 30.5947 176.319 30.9463C176.7 31.2686 177.228 31.4297 177.901 31.4297C178.312 31.4297 178.736 31.4004 179.176 31.3418C179.615 31.2539 180.055 31.21 180.494 31.21C181.256 31.21 181.798 31.4736 182.12 32.001C182.472 32.5283 182.647 33.2021 182.647 34.0225C182.647 34.6377 182.457 35.1797 182.076 35.6484C181.725 36.0879 181.271 36.4395 180.714 36.7031C180.157 36.9961 179.527 37.2158 178.824 37.3623C178.15 37.5088 177.506 37.582 176.891 37.582ZM191.876 37.2744C190.382 37.2744 189.078 36.8789 187.965 36.0879C186.852 35.2969 185.914 34.2861 185.152 33.0557C184.391 31.8252 183.819 30.4629 183.438 28.9688C183.058 27.4453 182.867 25.9512 182.867 24.4863C182.867 22.9336 183.058 21.3369 183.438 19.6963C183.819 18.0264 184.405 16.5176 185.196 15.1699C185.987 13.793 186.998 12.6797 188.229 11.8301C189.459 10.9512 190.924 10.5117 192.623 10.5117C194.264 10.5117 195.655 10.9658 196.798 11.874C197.97 12.7529 198.907 13.8662 199.61 15.2139C200.313 16.5322 200.812 17.9824 201.104 19.5645C201.397 21.1465 201.5 22.6406 201.412 24.0469C201.324 25.5996 201.075 27.167 200.665 28.749C200.284 30.3311 199.713 31.752 198.951 33.0117C198.189 34.2715 197.223 35.2969 196.051 36.0879C194.879 36.8789 193.487 37.2744 191.876 37.2744ZM192.315 17.4111C191.876 17.4111 191.48 17.6455 191.129 18.1143C190.807 18.583 190.528 19.1543 190.294 19.8281C190.089 20.502 189.928 21.2197 189.811 21.9814C189.693 22.7139 189.635 23.3584 189.635 23.915C189.635 24.6182 189.693 25.3799 189.811 26.2002C189.957 27.0205 190.147 27.7822 190.382 28.4854C190.616 29.1592 190.895 29.7305 191.217 30.1992C191.568 30.6387 191.964 30.8584 192.403 30.8584C192.872 30.8584 193.268 30.6387 193.59 30.1992C193.941 29.7598 194.22 29.2031 194.425 28.5293C194.63 27.8555 194.776 27.123 194.864 26.332C194.952 25.5117 194.996 24.75 194.996 24.0469C194.996 23.4023 194.938 22.6992 194.82 21.9375C194.703 21.1465 194.527 20.4141 194.293 19.7402C194.088 19.0664 193.81 18.5098 193.458 18.0703C193.136 17.6309 192.755 17.4111 192.315 17.4111ZM218.902 19.5645C218.492 19.5938 218.141 19.5645 217.848 19.4766C217.555 19.3594 217.262 19.2422 216.969 19.125C216.705 19.0078 216.441 18.9053 216.178 18.8174C215.914 18.7002 215.621 18.6562 215.299 18.6855C214.713 18.7148 214.186 18.876 213.717 19.1689C213.277 19.4619 212.867 19.8281 212.486 20.2676C212.135 20.707 211.827 21.2051 211.563 21.7617C211.3 22.2891 211.095 22.8164 210.948 23.3438C210.86 23.6953 210.787 24.2373 210.729 24.9697C210.699 25.6729 210.685 26.4346 210.685 27.2549C210.655 28.1045 210.641 28.9102 210.641 29.6719C210.641 30.4336 210.611 31.0342 210.553 31.4736C210.523 31.9424 210.45 32.499 210.333 33.1436C210.216 33.7588 210.025 34.3447 209.762 34.9014C209.527 35.458 209.205 35.9268 208.795 36.3076C208.385 36.6885 207.857 36.8789 207.213 36.8789C206.715 36.8789 206.275 36.7324 205.895 36.4395C205.543 36.1465 205.235 35.7656 204.972 35.2969C204.737 34.7988 204.532 34.2275 204.356 33.583C204.21 32.9385 204.093 32.2793 204.005 31.6055C203.917 30.9023 203.844 30.1992 203.785 29.4961C203.756 28.793 203.727 28.1338 203.697 27.5186C203.697 26.874 203.697 26.2881 203.697 25.7607C203.727 25.2334 203.741 24.8086 203.741 24.4863C203.712 23.4609 203.653 22.4355 203.565 21.4102C203.507 20.3555 203.478 19.3154 203.478 18.29C203.478 17.6455 203.507 16.9277 203.565 16.1367C203.624 15.3457 203.785 14.6133 204.049 13.9395C204.312 13.2363 204.693 12.6504 205.191 12.1816C205.719 11.7129 206.437 11.4785 207.345 11.4785C207.843 11.4785 208.268 11.6396 208.619 11.9619C208.971 12.2842 209.249 12.6797 209.454 13.1484C209.688 13.6172 209.864 14.1152 209.981 14.6426C210.099 15.1699 210.172 15.6533 210.201 16.0928C210.904 14.9502 211.695 14.0273 212.574 13.3242C213.453 12.5918 214.596 12.1963 216.002 12.1377C216.705 12.1084 217.394 12.1816 218.067 12.3574C218.771 12.5039 219.4 12.7676 219.957 13.1484C220.543 13.5 221.012 13.9688 221.363 14.5547C221.744 15.1406 221.949 15.8291 221.979 16.6201C222.037 17.5576 221.759 18.2754 221.144 18.7734C220.528 19.2715 219.781 19.5352 218.902 19.5645Z" fill="#FF6F59"/>
</svg>
